<svg width="33" height="31" fill="none" xmlns="http://www.w3.org/2000/svg"><path d="M4.75 7.25l8.823 6.195a5.107 5.107 0 005.854 0l8.822-6.194M2.59 20.227a19.286 19.286 0 010-9.454c1.026-4.063 4.304-7.205 8.463-8.11l.693-.151a22.358 22.358 0 019.51 0l.693.15c4.159.906 7.437 4.048 8.464 8.111.784 3.104.784 6.35 0 9.454-1.027 4.063-4.305 7.205-8.464 8.11l-.693.151a22.357 22.357 0 01-9.51 0l-.693-.15c-4.159-.906-7.437-4.048-8.464-8.111z" stroke="#D8975B" stroke-width="3" stroke-linecap="round"/></svg>